# xmcd
#
# Track frame offsets:
# 150
# 9437
# 14003
# 22954
# 31213
# 43701
# 52308
# 64879
# 75174
# 85359
# 94710
# 108495
# 118931
# 131607
# 139314
# 147952
# 157452
# 173962
# 181982
# 190514
# 197967
# 205618
# 216711
# 230461
# 242177
# 254668
# 265409
# 276760
# 286428
# 300459
#
# Disc length: 4253 seconds
#
#
# Revision: 0
# Processed by: cddbd v1.5.1PL0 Copyright (c) Steve Scherf et al.
# Submitted via: FreeRIP 2.942 
#
DISCID=c9109b1e
DTITLE=Gospelchor Bayreuth - Rock my soul
DYEAR=1998
DGENRE=Gospel
TTITLE0=Rock my soul
TTITLE1=Somebody's knocking
TTITLE2=Go, tell it on the mountain
TTITLE3=I can tell the world
TTITLE4=Followers of Christ
TTITLE5=Blind man
TTITLE6=Give me Jesus
TTITLE7=Ev'ry time I feel the spirit
TTITLE8=Ride in the chariot
TTITLE9=Shut the door
TTITLE10=Michelle
TTITLE11=Dans nos obscurités
TTITLE12=Go 'way
TTITLE13=The glory train
TTITLE14=This train
TTITLE15=People get ready
TTITLE16=Dona
TTITLE17=Asikhatali
TTITLE18=Oh freedom
TTITLE19=Joshua fit the battle
TTITLE20=Go down, Moses
TTITLE21=Elijah rock
TTITLE22=Were you there
TTITLE23=Let us break bread together
TTITLE24=Wade in the water
TTITLE25=I can't give you anything but love
TTITLE26=Mein kleiner grüner Kaktus
TTITLE27=My God
TTITLE28=Ev'rybody gonna pray
TTITLE29=O happy day
EXTD=
EXTT0=
EXTT1=
EXTT2=
EXTT3=
EXTT4=
EXTT5=
EXTT6=
EXTT7=
EXTT8=
EXTT9=
EXTT10=
EXTT11=
EXTT12=
EXTT13=
EXTT14=
EXTT15=
EXTT16=
EXTT17=
EXTT18=
EXTT19=
EXTT20=
EXTT21=
EXTT22=
EXTT23=
EXTT24=
EXTT25=
EXTT26=
EXTT27=
EXTT28=
EXTT29=
PLAYORDER=
